<svg width="1110pt" height="985pt"
 viewBox="0.00 0.00 1110.00 985.00" xmlns="http://www.w3.org/2000/svg" xmlns:xlink="http://www.w3.org/1999/xlink">
<g id="graph0" class="graph" transform="scale(1 1) rotate(0) translate(4 981)">
<title>G</title>
<polygon fill="#fffacd" stroke="transparent" points="-4,4 -4,-981 1106,-981 1106,4 -4,4"/>
<g id="clust1" class="cluster">
<title>cluster_list</title>
<polygon fill="#fffacd" stroke="#483d8b" stroke-dasharray="5,2" points="8,-8 8,-912 1094,-912 1094,-8 8,-8"/>
</g>
<!-- node0x604000000590 -->
<g id="node1" class="node">
<title>node0x604000000590</title>
<path fill="#40e0d0" stroke="#000000" d="M509.5,-808.5C509.5,-808.5 760.5,-808.5 760.5,-808.5 766.5,-808.5 772.5,-814.5 772.5,-820.5 772.5,-820.5 772.5,-891.5 772.5,-891.5 772.5,-897.5 766.5,-903.5 760.5,-903.5 760.5,-903.5 509.5,-903.5 509.5,-903.5 503.5,-903.5 497.5,-897.5 497.5,-891.5 497.5,-891.5 497.5,-820.5 497.5,-820.5 497.5,-814.5 503.5,-808.5 509.5,-808.5"/>
<text text-anchor="middle" x="635" y="-891.5" font-family="Times,serif" font-size="10.00">PARENT: (nil)</text>
<polyline fill="none" stroke="#000000" points="497.5,-884.5 772.5,-884.5 "/>
<text text-anchor="middle" x="635" y="-872.5" font-family="Times,serif" font-size="10.00">PTR: 0x604000000590</text>
<polyline fill="none" stroke="#000000" points="497.5,-865.5 772.5,-865.5 "/>
<text text-anchor="middle" x="635" y="-853.5" font-family="Times,serif" font-size="10.00">TYPE: 1</text>
<polyline fill="none" stroke="#000000" points="497.5,-846.5 772.5,-846.5 "/>
<text text-anchor="middle" x="635" y="-834.5" font-family="Times,serif" font-size="10.00">DATA: ;</text>
<polyline fill="none" stroke="#000000" points="497.5,-827.5 772.5,-827.5 "/>
<text text-anchor="middle" x="564.5" y="-815.5" font-family="Times,serif" font-size="10.00">LEFT: 0x604000000450</text>
<polyline fill="none" stroke="#000000" points="631.5,-808.5 631.5,-827.5 "/>
<text text-anchor="middle" x="702" y="-815.5" font-family="Times,serif" font-size="10.00">RIGHT: 0x604000000550</text>
</g>
<!-- node0x604000000450 -->
<g id="node2" class="node">
<title>node0x604000000450</title>
<path fill="#40e0d0" stroke="#000000" d="M319.5,-676.5C319.5,-676.5 570.5,-676.5 570.5,-676.5 576.5,-676.5 582.5,-682.5 582.5,-688.5 582.5,-688.5 582.5,-759.5 582.5,-759.5 582.5,-765.5 576.5,-771.5 570.5,-771.5 570.5,-771.5 319.5,-771.5 319.5,-771.5 313.5,-771.5 307.5,-765.5 307.5,-759.5 307.5,-759.5 307.5,-688.5 307.5,-688.5 307.5,-682.5 313.5,-676.5 319.5,-676.5"/>
<text text-anchor="middle" x="445" y="-759.5" font-family="Times,serif" font-size="10.00">PARENT: 0x604000000590</text>
<polyline fill="none" stroke="#000000" points="307.5,-752.5 582.5,-752.5 "/>
<text text-anchor="middle" x="445" y="-740.5" font-family="Times,serif" font-size="10.00">PTR: 0x604000000450</text>
<polyline fill="none" stroke="#000000" points="307.5,-733.5 582.5,-733.5 "/>
<text text-anchor="middle" x="445" y="-721.5" font-family="Times,serif" font-size="10.00">TYPE: 1</text>
<polyline fill="none" stroke="#000000" points="307.5,-714.5 582.5,-714.5 "/>
<text text-anchor="middle" x="445" y="-702.5" font-family="Times,serif" font-size="10.00">DATA: ;</text>
<polyline fill="none" stroke="#000000" points="307.5,-695.5 582.5,-695.5 "/>
<text text-anchor="middle" x="374.5" y="-683.5" font-family="Times,serif" font-size="10.00">LEFT: 0x6040000001d0</text>
<polyline fill="none" stroke="#000000" points="441.5,-676.5 441.5,-695.5 "/>
<text text-anchor="middle" x="512" y="-683.5" font-family="Times,serif" font-size="10.00">RIGHT: 0x604000000410</text>
</g>
<!-- node0x604000000590&#45;&gt;node0x604000000450 -->
<g id="edge17" class="edge">
<title>node0x604000000590:f0&#45;&gt;node0x604000000450</title>
<path fill="none" stroke="#000000" d="M496,-818C475.82,-818 463.58,-800.96 456.17,-781.47"/>
<polygon fill="#000000" stroke="#000000" points="459.41,-780.14 452.9,-771.77 452.77,-782.37 459.41,-780.14"/>
</g>
<!-- node0x604000000550 -->
<g id="node19" class="node">
<title>node0x604000000550</title>
<path fill="#40e0d0" stroke="#000000" d="M727.5,-676.5C727.5,-676.5 914.5,-676.5 914.5,-676.5 920.5,-676.5 926.5,-682.5 926.5,-688.5 926.5,-688.5 926.5,-759.5 926.5,-759.5 926.5,-765.5 920.5,-771.5 914.5,-771.5 914.5,-771.5 727.5,-771.5 727.5,-771.5 721.5,-771.5 715.5,-765.5 715.5,-759.5 715.5,-759.5 715.5,-688.5 715.5,-688.5 715.5,-682.5 721.5,-676.5 727.5,-676.5"/>
<text text-anchor="middle" x="821" y="-759.5" font-family="Times,serif" font-size="10.00">PARENT: 0x604000000590</text>
<polyline fill="none" stroke="#000000" points="715.5,-752.5 926.5,-752.5 "/>
<text text-anchor="middle" x="821" y="-740.5" font-family="Times,serif" font-size="10.00">PTR: 0x604000000550</text>
<polyline fill="none" stroke="#000000" points="715.5,-733.5 926.5,-733.5 "/>
<text text-anchor="middle" x="821" y="-721.5" font-family="Times,serif" font-size="10.00">TYPE: 1</text>
<polyline fill="none" stroke="#000000" points="715.5,-714.5 926.5,-714.5 "/>
<text text-anchor="middle" x="821" y="-702.5" font-family="Times,serif" font-size="10.00">DATA: var</text>
<polyline fill="none" stroke="#000000" points="715.5,-695.5 926.5,-695.5 "/>
<text text-anchor="middle" x="750.5" y="-683.5" font-family="Times,serif" font-size="10.00">LEFT: (nil)</text>
<polyline fill="none" stroke="#000000" points="785.5,-676.5 785.5,-695.5 "/>
<text text-anchor="middle" x="856" y="-683.5" font-family="Times,serif" font-size="10.00">RIGHT: 0x604000000510</text>
</g>
<!-- node0x604000000590&#45;&gt;node0x604000000550 -->
<g id="edge21" class="edge">
<title>node0x604000000590:f1&#45;&gt;node0x604000000550</title>
<path fill="none" stroke="#000000" d="M774,-818C793.82,-818 805.29,-800.96 811.92,-781.47"/>
<polygon fill="#000000" stroke="#000000" points="815.3,-782.36 814.8,-771.77 808.59,-780.36 815.3,-782.36"/>
</g>
<!-- node0x6040000001d0 -->
<g id="node3" class="node">
<title>node0x6040000001d0</title>
<path fill="#40e0d0" stroke="#000000" d="M141.5,-544.5C141.5,-544.5 328.5,-544.5 328.5,-544.5 334.5,-544.5 340.5,-550.5 340.5,-556.5 340.5,-556.5 340.5,-627.5 340.5,-627.5 340.5,-633.5 334.5,-639.5 328.5,-639.5 328.5,-639.5 141.5,-639.5 141.5,-639.5 135.5,-639.5 129.5,-633.5 129.5,-627.5 129.5,-627.5 129.5,-556.5 129.5,-556.5 129.5,-550.5 135.5,-544.5 141.5,-544.5"/>
<text text-anchor="middle" x="235" y="-627.5" font-family="Times,serif" font-size="10.00">PARENT: 0x604000000450</text>
<polyline fill="none" stroke="#000000" points="129.5,-620.5 340.5,-620.5 "/>
<text text-anchor="middle" x="235" y="-608.5" font-family="Times,serif" font-size="10.00">PTR: 0x6040000001d0</text>
<polyline fill="none" stroke="#000000" points="129.5,-601.5 340.5,-601.5 "/>
<text text-anchor="middle" x="235" y="-589.5" font-family="Times,serif" font-size="10.00">TYPE: 1</text>
<polyline fill="none" stroke="#000000" points="129.5,-582.5 340.5,-582.5 "/>
<text text-anchor="middle" x="235" y="-570.5" font-family="Times,serif" font-size="10.00">DATA: ;</text>
<polyline fill="none" stroke="#000000" points="129.5,-563.5 340.5,-563.5 "/>
<text text-anchor="middle" x="196.5" y="-551.5" font-family="Times,serif" font-size="10.00">LEFT: 0x604000000190</text>
<polyline fill="none" stroke="#000000" points="263.5,-544.5 263.5,-563.5 "/>
<text text-anchor="middle" x="302" y="-551.5" font-family="Times,serif" font-size="10.00">RIGHT: (nil)</text>
</g>
<!-- node0x604000000450&#45;&gt;node0x6040000001d0 -->
<g id="edge7" class="edge">
<title>node0x604000000450:f0&#45;&gt;node0x6040000001d0</title>
<path fill="none" stroke="#000000" d="M306,-686C283.44,-686 267.09,-668.5 255.81,-648.67"/>
<polygon fill="#000000" stroke="#000000" points="258.88,-647 251.13,-639.77 252.69,-650.25 258.88,-647"/>
</g>
<!-- node0x604000000410 -->
<g id="node10" class="node">
<title>node0x604000000410</title>
<path fill="#40e0d0" stroke="#000000" d="M386,-544.5C386,-544.5 638,-544.5 638,-544.5 644,-544.5 650,-550.5 650,-556.5 650,-556.5 650,-627.5 650,-627.5 650,-633.5 644,-639.5 638,-639.5 638,-639.5 386,-639.5 386,-639.5 380,-639.5 374,-633.5 374,-627.5 374,-627.5 374,-556.5 374,-556.5 374,-550.5 380,-544.5 386,-544.5"/>
<text text-anchor="middle" x="512" y="-627.5" font-family="Times,serif" font-size="10.00">PARENT: 0x604000000450</text>
<polyline fill="none" stroke="#000000" points="374,-620.5 650,-620.5 "/>
<text text-anchor="middle" x="512" y="-608.5" font-family="Times,serif" font-size="10.00">PTR: 0x604000000410</text>
<polyline fill="none" stroke="#000000" points="374,-601.5 650,-601.5 "/>
<text text-anchor="middle" x="512" y="-589.5" font-family="Times,serif" font-size="10.00">TYPE: 1</text>
<polyline fill="none" stroke="#000000" points="374,-582.5 650,-582.5 "/>
<text text-anchor="middle" x="512" y="-570.5" font-family="Times,serif" font-size="10.00">DATA: if</text>
<polyline fill="none" stroke="#000000" points="374,-563.5 650,-563.5 "/>
<text text-anchor="middle" x="441" y="-551.5" font-family="Times,serif" font-size="10.00">LEFT: 0x604000000290</text>
<polyline fill="none" stroke="#000000" points="508,-544.5 508,-563.5 "/>
<text text-anchor="middle" x="579" y="-551.5" font-family="Times,serif" font-size="10.00">RIGHT: 0x6040000003d0</text>
</g>
<!-- node0x604000000450&#45;&gt;node0x604000000410 -->
<g id="edge16" class="edge">
<title>node0x604000000450:f1&#45;&gt;node0x604000000410</title>
<path fill="none" stroke="#000000" d="M512,-676C512,-667.51 512,-658.53 512,-649.73"/>
<polygon fill="#000000" stroke="#000000" points="515.5,-649.53 512,-639.53 508.5,-649.53 515.5,-649.53"/>
</g>
<!-- node0x604000000190 -->
<g id="node4" class="node">
<title>node0x604000000190</title>
<path fill="#40e0d0" stroke="#000000" d="M28.5,-412.5C28.5,-412.5 215.5,-412.5 215.5,-412.5 221.5,-412.5 227.5,-418.5 227.5,-424.5 227.5,-424.5 227.5,-495.5 227.5,-495.5 227.5,-501.5 221.5,-507.5 215.5,-507.5 215.5,-507.5 28.5,-507.5 28.5,-507.5 22.5,-507.5 16.5,-501.5 16.5,-495.5 16.5,-495.5 16.5,-424.5 16.5,-424.5 16.5,-418.5 22.5,-412.5 28.5,-412.5"/>
<text text-anchor="middle" x="122" y="-495.5" font-family="Times,serif" font-size="10.00">PARENT: 0x6040000001d0</text>
<polyline fill="none" stroke="#000000" points="16.5,-488.5 227.5,-488.5 "/>
<text text-anchor="middle" x="122" y="-476.5" font-family="Times,serif" font-size="10.00">PTR: 0x604000000190</text>
<polyline fill="none" stroke="#000000" points="16.5,-469.5 227.5,-469.5 "/>
<text text-anchor="middle" x="122" y="-457.5" font-family="Times,serif" font-size="10.00">TYPE: 1</text>
<polyline fill="none" stroke="#000000" points="16.5,-450.5 227.5,-450.5 "/>
<text text-anchor="middle" x="122" y="-438.5" font-family="Times,serif" font-size="10.00">DATA: var</text>
<polyline fill="none" stroke="#000000" points="16.5,-431.5 227.5,-431.5 "/>
<text text-anchor="middle" x="51.5" y="-419.5" font-family="Times,serif" font-size="10.00">LEFT: (nil)</text>
<polyline fill="none" stroke="#000000" points="86.5,-412.5 86.5,-431.5 "/>
<text text-anchor="middle" x="157" y="-419.5" font-family="Times,serif" font-size="10.00">RIGHT: 0x604000000150</text>
</g>
<!-- node0x6040000001d0&#45;&gt;node0x604000000190 -->
<g id="edge6" class="edge">
<title>node0x6040000001d0:f0&#45;&gt;node0x604000000190</title>
<path fill="none" stroke="#000000" d="M128,-554C110.35,-554 106.65,-537.12 108.22,-517.74"/>
<polygon fill="#000000" stroke="#000000" points="111.7,-518.12 109.42,-507.77 104.75,-517.28 111.7,-518.12"/>
</g>
<!-- node0x604000000150 -->
<g id="node5" class="node">
<title>node0x604000000150</title>
<path fill="#40e0d0" stroke="#000000" d="M29.5,-280.5C29.5,-280.5 280.5,-280.5 280.5,-280.5 286.5,-280.5 292.5,-286.5 292.5,-292.5 292.5,-292.5 292.5,-363.5 292.5,-363.5 292.5,-369.5 286.5,-375.5 280.5,-375.5 280.5,-375.5 29.5,-375.5 29.5,-375.5 23.5,-375.5 17.5,-369.5 17.5,-363.5 17.5,-363.5 17.5,-292.5 17.5,-292.5 17.5,-286.5 23.5,-280.5 29.5,-280.5"/>
<text text-anchor="middle" x="155" y="-363.5" font-family="Times,serif" font-size="10.00">PARENT: 0x604000000190</text>
<polyline fill="none" stroke="#000000" points="17.5,-356.5 292.5,-356.5 "/>
<text text-anchor="middle" x="155" y="-344.5" font-family="Times,serif" font-size="10.00">PTR: 0x604000000150</text>
<polyline fill="none" stroke="#000000" points="17.5,-337.5 292.5,-337.5 "/>
<text text-anchor="middle" x="155" y="-325.5" font-family="Times,serif" font-size="10.00">TYPE: 1</text>
<polyline fill="none" stroke="#000000" points="17.5,-318.5 292.5,-318.5 "/>
<text text-anchor="middle" x="155" y="-306.5" font-family="Times,serif" font-size="10.00">DATA: =</text>
<polyline fill="none" stroke="#000000" points="17.5,-299.5 292.5,-299.5 "/>
<text text-anchor="middle" x="84.5" y="-287.5" font-family="Times,serif" font-size="10.00">LEFT: 0x604000000050</text>
<polyline fill="none" stroke="#000000" points="151.5,-280.5 151.5,-299.5 "/>
<text text-anchor="middle" x="222" y="-287.5" font-family="Times,serif" font-size="10.00">RIGHT: 0x604000000110</text>
</g>
<!-- node0x604000000190&#45;&gt;node0x604000000150 -->
<g id="edge5" class="edge">
<title>node0x604000000190:f1&#45;&gt;node0x604000000150</title>
<path fill="none" stroke="#000000" d="M157,-412C157,-403.5 156.89,-394.52 156.73,-385.73"/>
<polygon fill="#000000" stroke="#000000" points="160.23,-385.45 156.52,-375.53 153.23,-385.6 160.23,-385.45"/>
</g>
<!-- node0x604000000050 -->
<g id="node6" class="node">
<title>node0x604000000050</title>
<path fill="#ffdb58" stroke="#000000" d="M28,-148.5C28,-148.5 154,-148.5 154,-148.5 160,-148.5 166,-154.5 166,-160.5 166,-160.5 166,-231.5 166,-231.5 166,-237.5 160,-243.5 154,-243.5 154,-243.5 28,-243.5 28,-243.5 22,-243.5 16,-237.5 16,-231.5 16,-231.5 16,-160.5 16,-160.5 16,-154.5 22,-148.5 28,-148.5"/>
<text text-anchor="middle" x="91" y="-231.5" font-family="Times,serif" font-size="10.00">PARENT: 0x604000000150</text>
<polyline fill="none" stroke="#000000" points="16,-224.5 166,-224.5 "/>
<text text-anchor="middle" x="91" y="-212.5" font-family="Times,serif" font-size="10.00">PTR: 0x604000000050</text>
<polyline fill="none" stroke="#000000" points="16,-205.5 166,-205.5 "/>
<text text-anchor="middle" x="91" y="-193.5" font-family="Times,serif" font-size="10.00">TYPE: 3</text>
<polyline fill="none" stroke="#000000" points="16,-186.5 166,-186.5 "/>
<text text-anchor="middle" x="91" y="-174.5" font-family="Times,serif" font-size="10.00">DATA: x</text>
<polyline fill="none" stroke="#000000" points="16,-167.5 166,-167.5 "/>
<text text-anchor="middle" x="51.5" y="-155.5" font-family="Times,serif" font-size="10.00">LEFT: (nil)</text>
<polyline fill="none" stroke="#000000" points="87,-148.5 87,-167.5 "/>
<text text-anchor="middle" x="126.5" y="-155.5" font-family="Times,serif" font-size="10.00">RIGHT: (nil)</text>
</g>
<!-- node0x604000000150&#45;&gt;node0x604000000050 -->
<g id="edge1" class="edge">
<title>node0x604000000150:f0&#45;&gt;node0x604000000050</title>
<path fill="none" stroke="#000000" d="M84,-280C84,-271.58 84.36,-262.7 84.92,-254"/>
<polygon fill="#000000" stroke="#000000" points="88.42,-254.14 85.66,-243.91 81.44,-253.63 88.42,-254.14"/>
</g>
<!-- node0x604000000110 -->
<g id="node7" class="node">
<title>node0x604000000110</title>
<path fill="#40e0d0" stroke="#000000" d="M196,-148.5C196,-148.5 448,-148.5 448,-148.5 454,-148.5 460,-154.5 460,-160.5 460,-160.5 460,-231.5 460,-231.5 460,-237.5 454,-243.5 448,-243.5 448,-243.5 196,-243.5 196,-243.5 190,-243.5 184,-237.5 184,-231.5 184,-231.5 184,-160.5 184,-160.5 184,-154.5 190,-148.5 196,-148.5"/>
<text text-anchor="middle" x="322" y="-231.5" font-family="Times,serif" font-size="10.00">PARENT: 0x604000000150</text>
<polyline fill="none" stroke="#000000" points="184,-224.5 460,-224.5 "/>
<text text-anchor="middle" x="322" y="-212.5" font-family="Times,serif" font-size="10.00">PTR: 0x604000000110</text>
<polyline fill="none" stroke="#000000" points="184,-205.5 460,-205.5 "/>
<text text-anchor="middle" x="322" y="-193.5" font-family="Times,serif" font-size="10.00">TYPE: 1</text>
<polyline fill="none" stroke="#000000" points="184,-186.5 460,-186.5 "/>
<text text-anchor="middle" x="322" y="-174.5" font-family="Times,serif" font-size="10.00">DATA: call</text>
<polyline fill="none" stroke="#000000" points="184,-167.5 460,-167.5 "/>
<text text-anchor="middle" x="251" y="-155.5" font-family="Times,serif" font-size="10.00">LEFT: 0x604000000090</text>
<polyline fill="none" stroke="#000000" points="318,-148.5 318,-167.5 "/>
<text text-anchor="middle" x="389" y="-155.5" font-family="Times,serif" font-size="10.00">RIGHT: 0x6040000000d0</text>
</g>
<!-- node0x604000000150&#45;&gt;node0x604000000110 -->
<g id="edge4" class="edge">
<title>node0x604000000150:f1&#45;&gt;node0x604000000110</title>
<path fill="none" stroke="#000000" d="M294,-290C298.62,-290 304.41,-272.96 309.53,-253.47"/>
<polygon fill="#000000" stroke="#000000" points="312.93,-254.33 311.98,-243.77 306.14,-252.61 312.93,-254.33"/>
</g>
<!-- node0x604000000090 -->
<g id="node8" class="node">
<title>node0x604000000090</title>
<path fill="#ffdb58" stroke="#000000" d="M173,-16.5C173,-16.5 299,-16.5 299,-16.5 305,-16.5 311,-22.5 311,-28.5 311,-28.5 311,-99.5 311,-99.5 311,-105.5 305,-111.5 299,-111.5 299,-111.5 173,-111.5 173,-111.5 167,-111.5 161,-105.5 161,-99.5 161,-99.5 161,-28.5 161,-28.5 161,-22.5 167,-16.5 173,-16.5"/>
<text text-anchor="middle" x="236" y="-99.5" font-family="Times,serif" font-size="10.00">PARENT: 0x604000000110</text>
<polyline fill="none" stroke="#000000" points="161,-92.5 311,-92.5 "/>
<text text-anchor="middle" x="236" y="-80.5" font-family="Times,serif" font-size="10.00">PTR: 0x604000000090</text>
<polyline fill="none" stroke="#000000" points="161,-73.5 311,-73.5 "/>
<text text-anchor="middle" x="236" y="-61.5" font-family="Times,serif" font-size="10.00">TYPE: 3</text>
<polyline fill="none" stroke="#000000" points="161,-54.5 311,-54.5 "/>
<text text-anchor="middle" x="236" y="-42.5" font-family="Times,serif" font-size="10.00">DATA: sin</text>
<polyline fill="none" stroke="#000000" points="161,-35.5 311,-35.5 "/>
<text text-anchor="middle" x="196.5" y="-23.5" font-family="Times,serif" font-size="10.00">LEFT: (nil)</text>
<polyline fill="none" stroke="#000000" points="232,-16.5 232,-35.5 "/>
<text text-anchor="middle" x="271.5" y="-23.5" font-family="Times,serif" font-size="10.00">RIGHT: (nil)</text>
</g>
<!-- node0x604000000110&#45;&gt;node0x604000000090 -->
<g id="edge2" class="edge">
<title>node0x604000000110:f0&#45;&gt;node0x604000000090</title>
<path fill="none" stroke="#000000" d="M251,-148C251,-139.47 250.22,-130.53 249.03,-121.81"/>
<polygon fill="#000000" stroke="#000000" points="252.45,-121.04 247.45,-111.7 245.53,-122.12 252.45,-121.04"/>
</g>
<!-- node0x6040000000d0 -->
<g id="node9" class="node">
<title>node0x6040000000d0</title>
<path fill="#9acd32" stroke="#000000" d="M341,-16.5C341,-16.5 467,-16.5 467,-16.5 473,-16.5 479,-22.5 479,-28.5 479,-28.5 479,-99.5 479,-99.5 479,-105.5 473,-111.5 467,-111.5 467,-111.5 341,-111.5 341,-111.5 335,-111.5 329,-105.5 329,-99.5 329,-99.5 329,-28.5 329,-28.5 329,-22.5 335,-16.5 341,-16.5"/>
<text text-anchor="middle" x="404" y="-99.5" font-family="Times,serif" font-size="10.00">PARENT: 0x604000000110</text>
<polyline fill="none" stroke="#000000" points="329,-92.5 479,-92.5 "/>
<text text-anchor="middle" x="404" y="-80.5" font-family="Times,serif" font-size="10.00">PTR: 0x6040000000d0</text>
<polyline fill="none" stroke="#000000" points="329,-73.5 479,-73.5 "/>
<text text-anchor="middle" x="404" y="-61.5" font-family="Times,serif" font-size="10.00">TYPE: 2</text>
<polyline fill="none" stroke="#000000" points="329,-54.5 479,-54.5 "/>
<text text-anchor="middle" x="404" y="-42.5" font-family="Times,serif" font-size="10.00">DATA: 2.000</text>
<polyline fill="none" stroke="#000000" points="329,-35.5 479,-35.5 "/>
<text text-anchor="middle" x="364.5" y="-23.5" font-family="Times,serif" font-size="10.00">LEFT: (nil)</text>
<polyline fill="none" stroke="#000000" points="400,-16.5 400,-35.5 "/>
<text text-anchor="middle" x="439.5" y="-23.5" font-family="Times,serif" font-size="10.00">RIGHT: (nil)</text>
</g>
<!-- node0x604000000110&#45;&gt;node0x6040000000d0 -->
<g id="edge3" class="edge">
<title>node0x604000000110:f1&#45;&gt;node0x6040000000d0</title>
<path fill="none" stroke="#000000" d="M389,-148C389,-139.47 389.78,-130.53 390.97,-121.81"/>
<polygon fill="#000000" stroke="#000000" points="394.47,-122.12 392.55,-111.7 387.55,-121.04 394.47,-122.12"/>
</g>
<!-- node0x604000000290 -->
<g id="node11" class="node">
<title>node0x604000000290</title>
<path fill="#40e0d0" stroke="#000000" d="M257.5,-412.5C257.5,-412.5 508.5,-412.5 508.5,-412.5 514.5,-412.5 520.5,-418.5 520.5,-424.5 520.5,-424.5 520.5,-495.5 520.5,-495.5 520.5,-501.5 514.5,-507.5 508.5,-507.5 508.5,-507.5 257.5,-507.5 257.5,-507.5 251.5,-507.5 245.5,-501.5 245.5,-495.5 245.5,-495.5 245.5,-424.5 245.5,-424.5 245.5,-418.5 251.5,-412.5 257.5,-412.5"/>
<text text-anchor="middle" x="383" y="-495.5" font-family="Times,serif" font-size="10.00">PARENT: 0x604000000410</text>
<polyline fill="none" stroke="#000000" points="245.5,-488.5 520.5,-488.5 "/>
<text text-anchor="middle" x="383" y="-476.5" font-family="Times,serif" font-size="10.00">PTR: 0x604000000290</text>
<polyline fill="none" stroke="#000000" points="245.5,-469.5 520.5,-469.5 "/>
<text text-anchor="middle" x="383" y="-457.5" font-family="Times,serif" font-size="10.00">TYPE: 1</text>
<polyline fill="none" stroke="#000000" points="245.5,-450.5 520.5,-450.5 "/>
<text text-anchor="middle" x="383" y="-438.5" font-family="Times,serif" font-size="10.00">DATA: !=</text>
<polyline fill="none" stroke="#000000" points="245.5,-431.5 520.5,-431.5 "/>
<text text-anchor="middle" x="312.5" y="-419.5" font-family="Times,serif" font-size="10.00">LEFT: 0x604000000210</text>
<polyline fill="none" stroke="#000000" points="379.5,-412.5 379.5,-431.5 "/>
<text text-anchor="middle" x="450" y="-419.5" font-family="Times,serif" font-size="10.00">RIGHT: 0x604000000250</text>
</g>
<!-- node0x604000000410&#45;&gt;node0x604000000290 -->
<g id="edge10" class="edge">
<title>node0x604000000410:f0&#45;&gt;node0x604000000290</title>
<path fill="none" stroke="#000000" d="M373,-554C355.21,-554 354.48,-536.96 359.46,-517.47"/>
<polygon fill="#000000" stroke="#000000" points="362.85,-518.35 362.32,-507.77 356.14,-516.38 362.85,-518.35"/>
</g>
<!-- node0x6040000003d0 -->
<g id="node14" class="node">
<title>node0x6040000003d0</title>
<path fill="#40e0d0" stroke="#000000" d="M550.5,-412.5C550.5,-412.5 737.5,-412.5 737.5,-412.5 743.5,-412.5 749.5,-418.5 749.5,-424.5 749.5,-424.5 749.5,-495.5 749.5,-495.5 749.5,-501.5 743.5,-507.5 737.5,-507.5 737.5,-507.5 550.5,-507.5 550.5,-507.5 544.5,-507.5 538.5,-501.5 538.5,-495.5 538.5,-495.5 538.5,-424.5 538.5,-424.5 538.5,-418.5 544.5,-412.5 550.5,-412.5"/>
<text text-anchor="middle" x="644" y="-495.5" font-family="Times,serif" font-size="10.00">PARENT: 0x604000000410</text>
<polyline fill="none" stroke="#000000" points="538.5,-488.5 749.5,-488.5 "/>
<text text-anchor="middle" x="644" y="-476.5" font-family="Times,serif" font-size="10.00">PTR: 0x6040000003d0</text>
<polyline fill="none" stroke="#000000" points="538.5,-469.5 749.5,-469.5 "/>
<text text-anchor="middle" x="644" y="-457.5" font-family="Times,serif" font-size="10.00">TYPE: 1</text>
<polyline fill="none" stroke="#000000" points="538.5,-450.5 749.5,-450.5 "/>
<text text-anchor="middle" x="644" y="-438.5" font-family="Times,serif" font-size="10.00">DATA: ;</text>
<polyline fill="none" stroke="#000000" points="538.5,-431.5 749.5,-431.5 "/>
<text text-anchor="middle" x="605.5" y="-419.5" font-family="Times,serif" font-size="10.00">LEFT: 0x604000000390</text>
<polyline fill="none" stroke="#000000" points="672.5,-412.5 672.5,-431.5 "/>
<text text-anchor="middle" x="711" y="-419.5" font-family="Times,serif" font-size="10.00">RIGHT: (nil)</text>
</g>
<!-- node0x604000000410&#45;&gt;node0x6040000003d0 -->
<g id="edge15" class="edge">
<title>node0x604000000410:f1&#45;&gt;node0x6040000003d0</title>
<path fill="none" stroke="#000000" d="M651,-554C668.74,-554 670.01,-536.96 665.66,-517.47"/>
<polygon fill="#000000" stroke="#000000" points="669.04,-516.56 663.12,-507.77 662.27,-518.33 669.04,-516.56"/>
</g>
<!-- node0x604000000210 -->
<g id="node12" class="node">
<title>node0x604000000210</title>
<path fill="#ffdb58" stroke="#000000" d="M323,-280.5C323,-280.5 449,-280.5 449,-280.5 455,-280.5 461,-286.5 461,-292.5 461,-292.5 461,-363.5 461,-363.5 461,-369.5 455,-375.5 449,-375.5 449,-375.5 323,-375.5 323,-375.5 317,-375.5 311,-369.5 311,-363.5 311,-363.5 311,-292.5 311,-292.5 311,-286.5 317,-280.5 323,-280.5"/>
<text text-anchor="middle" x="386" y="-363.5" font-family="Times,serif" font-size="10.00">PARENT: 0x604000000290</text>
<polyline fill="none" stroke="#000000" points="311,-356.5 461,-356.5 "/>
<text text-anchor="middle" x="386" y="-344.5" font-family="Times,serif" font-size="10.00">PTR: 0x604000000210</text>
<polyline fill="none" stroke="#000000" points="311,-337.5 461,-337.5 "/>
<text text-anchor="middle" x="386" y="-325.5" font-family="Times,serif" font-size="10.00">TYPE: 3</text>
<polyline fill="none" stroke="#000000" points="311,-318.5 461,-318.5 "/>
<text text-anchor="middle" x="386" y="-306.5" font-family="Times,serif" font-size="10.00">DATA: x</text>
<polyline fill="none" stroke="#000000" points="311,-299.5 461,-299.5 "/>
<text text-anchor="middle" x="346.5" y="-287.5" font-family="Times,serif" font-size="10.00">LEFT: (nil)</text>
<polyline fill="none" stroke="#000000" points="382,-280.5 382,-299.5 "/>
<text text-anchor="middle" x="421.5" y="-287.5" font-family="Times,serif" font-size="10.00">RIGHT: (nil)</text>
</g>
<!-- node0x604000000290&#45;&gt;node0x604000000210 -->
<g id="edge8" class="edge">
<title>node0x604000000290:f0&#45;&gt;node0x604000000210</title>
<path fill="none" stroke="#000000" d="M312,-412C312,-402.11 314.96,-392.86 319.7,-384.38"/>
<polygon fill="#000000" stroke="#000000" points="322.74,-386.14 325.23,-375.84 316.86,-382.33 322.74,-386.14"/>
</g>
<!-- node0x604000000250 -->
<g id="node13" class="node">
<title>node0x604000000250</title>
<path fill="#9acd32" stroke="#000000" d="M491,-280.5C491,-280.5 617,-280.5 617,-280.5 623,-280.5 629,-286.5 629,-292.5 629,-292.5 629,-363.5 629,-363.5 629,-369.5 623,-375.5 617,-375.5 617,-375.5 491,-375.5 491,-375.5 485,-375.5 479,-369.5 479,-363.5 479,-363.5 479,-292.5 479,-292.5 479,-286.5 485,-280.5 491,-280.5"/>
<text text-anchor="middle" x="554" y="-363.5" font-family="Times,serif" font-size="10.00">PARENT: 0x604000000290</text>
<polyline fill="none" stroke="#000000" points="479,-356.5 629,-356.5 "/>
<text text-anchor="middle" x="554" y="-344.5" font-family="Times,serif" font-size="10.00">PTR: 0x604000000250</text>
<polyline fill="none" stroke="#000000" points="479,-337.5 629,-337.5 "/>
<text text-anchor="middle" x="554" y="-325.5" font-family="Times,serif" font-size="10.00">TYPE: 2</text>
<polyline fill="none" stroke="#000000" points="479,-318.5 629,-318.5 "/>
<text text-anchor="middle" x="554" y="-306.5" font-family="Times,serif" font-size="10.00">DATA: 0.500</text>
<polyline fill="none" stroke="#000000" points="479,-299.5 629,-299.5 "/>
<text text-anchor="middle" x="514.5" y="-287.5" font-family="Times,serif" font-size="10.00">LEFT: (nil)</text>
<polyline fill="none" stroke="#000000" points="550,-280.5 550,-299.5 "/>
<text text-anchor="middle" x="589.5" y="-287.5" font-family="Times,serif" font-size="10.00">RIGHT: (nil)</text>
</g>
<!-- node0x604000000290&#45;&gt;node0x604000000250 -->
<g id="edge9" class="edge">
<title>node0x604000000290:f1&#45;&gt;node0x604000000250</title>
<path fill="none" stroke="#000000" d="M522,-422C526.68,-422 533.21,-404.96 539.16,-385.47"/>
<polygon fill="#000000" stroke="#000000" points="542.55,-386.35 542.02,-375.77 535.83,-384.37 542.55,-386.35"/>
</g>
<!-- node0x604000000390 -->
<g id="node15" class="node">
<title>node0x604000000390</title>
<path fill="#40e0d0" stroke="#000000" d="M659.5,-280.5C659.5,-280.5 846.5,-280.5 846.5,-280.5 852.5,-280.5 858.5,-286.5 858.5,-292.5 858.5,-292.5 858.5,-363.5 858.5,-363.5 858.5,-369.5 852.5,-375.5 846.5,-375.5 846.5,-375.5 659.5,-375.5 659.5,-375.5 653.5,-375.5 647.5,-369.5 647.5,-363.5 647.5,-363.5 647.5,-292.5 647.5,-292.5 647.5,-286.5 653.5,-280.5 659.5,-280.5"/>
<text text-anchor="middle" x="753" y="-363.5" font-family="Times,serif" font-size="10.00">PARENT: 0x6040000003d0</text>
<polyline fill="none" stroke="#000000" points="647.5,-356.5 858.5,-356.5 "/>
<text text-anchor="middle" x="753" y="-344.5" font-family="Times,serif" font-size="10.00">PTR: 0x604000000390</text>
<polyline fill="none" stroke="#000000" points="647.5,-337.5 858.5,-337.5 "/>
<text text-anchor="middle" x="753" y="-325.5" font-family="Times,serif" font-size="10.00">TYPE: 1</text>
<polyline fill="none" stroke="#000000" points="647.5,-318.5 858.5,-318.5 "/>
<text text-anchor="middle" x="753" y="-306.5" font-family="Times,serif" font-size="10.00">DATA: var</text>
<polyline fill="none" stroke="#000000" points="647.5,-299.5 858.5,-299.5 "/>
<text text-anchor="middle" x="682.5" y="-287.5" font-family="Times,serif" font-size="10.00">LEFT: (nil)</text>
<polyline fill="none" stroke="#000000" points="717.5,-280.5 717.5,-299.5 "/>
<text text-anchor="middle" x="788" y="-287.5" font-family="Times,serif" font-size="10.00">RIGHT: 0x604000000350</text>
</g>
<!-- node0x6040000003d0&#45;&gt;node0x604000000390 -->
<g id="edge14" class="edge">
<title>node0x6040000003d0:f0&#45;&gt;node0x604000000390</title>
<path fill="none" stroke="#000000" d="M605,-412C605,-400.39 619.03,-388.06 638.46,-376.55"/>
<polygon fill="#000000" stroke="#000000" points="640.42,-379.46 647.41,-371.5 636.98,-373.37 640.42,-379.46"/>
</g>
<!-- node0x604000000350 -->
<g id="node16" class="node">
<title>node0x604000000350</title>
<path fill="#40e0d0" stroke="#000000" d="M662.5,-148.5C662.5,-148.5 913.5,-148.5 913.5,-148.5 919.5,-148.5 925.5,-154.5 925.5,-160.5 925.5,-160.5 925.5,-231.5 925.5,-231.5 925.5,-237.5 919.5,-243.5 913.5,-243.5 913.5,-243.5 662.5,-243.5 662.5,-243.5 656.5,-243.5 650.5,-237.5 650.5,-231.5 650.5,-231.5 650.5,-160.5 650.5,-160.5 650.5,-154.5 656.5,-148.5 662.5,-148.5"/>
<text text-anchor="middle" x="788" y="-231.5" font-family="Times,serif" font-size="10.00">PARENT: 0x604000000390</text>
<polyline fill="none" stroke="#000000" points="650.5,-224.5 925.5,-224.5 "/>
<text text-anchor="middle" x="788" y="-212.5" font-family="Times,serif" font-size="10.00">PTR: 0x604000000350</text>
<polyline fill="none" stroke="#000000" points="650.5,-205.5 925.5,-205.5 "/>
<text text-anchor="middle" x="788" y="-193.5" font-family="Times,serif" font-size="10.00">TYPE: 1</text>
<polyline fill="none" stroke="#000000" points="650.5,-186.5 925.5,-186.5 "/>
<text text-anchor="middle" x="788" y="-174.5" font-family="Times,serif" font-size="10.00">DATA: =</text>
<polyline fill="none" stroke="#000000" points="650.5,-167.5 925.5,-167.5 "/>
<text text-anchor="middle" x="717.5" y="-155.5" font-family="Times,serif" font-size="10.00">LEFT: 0x6040000002d0</text>
<polyline fill="none" stroke="#000000" points="784.5,-148.5 784.5,-167.5 "/>
<text text-anchor="middle" x="855" y="-155.5" font-family="Times,serif" font-size="10.00">RIGHT: 0x604000000310</text>
</g>
<!-- node0x604000000390&#45;&gt;node0x604000000350 -->
<g id="edge13" class="edge">
<title>node0x604000000390:f1&#45;&gt;node0x604000000350</title>
<path fill="none" stroke="#000000" d="M788,-280C788,-271.51 788,-262.53 788,-253.73"/>
<polygon fill="#000000" stroke="#000000" points="791.5,-253.53 788,-243.53 784.5,-253.53 791.5,-253.53"/>
</g>
<!-- node0x6040000002d0 -->
<g id="node17" class="node">
<title>node0x6040000002d0</title>
<path fill="#ffdb58" stroke="#000000" d="M639,-16.5C639,-16.5 765,-16.5 765,-16.5 771,-16.5 777,-22.5 777,-28.5 777,-28.5 777,-99.5 777,-99.5 777,-105.5 771,-111.5 765,-111.5 765,-111.5 639,-111.5 639,-111.5 633,-111.5 627,-105.5 627,-99.5 627,-99.5 627,-28.5 627,-28.5 627,-22.5 633,-16.5 639,-16.5"/>
<text text-anchor="middle" x="702" y="-99.5" font-family="Times,serif" font-size="10.00">PARENT: 0x604000000350</text>
<polyline fill="none" stroke="#000000" points="627,-92.5 777,-92.5 "/>
<text text-anchor="middle" x="702" y="-80.5" font-family="Times,serif" font-size="10.00">PTR: 0x6040000002d0</text>
<polyline fill="none" stroke="#000000" points="627,-73.5 777,-73.5 "/>
<text text-anchor="middle" x="702" y="-61.5" font-family="Times,serif" font-size="10.00">TYPE: 3</text>
<polyline fill="none" stroke="#000000" points="627,-54.5 777,-54.5 "/>
<text text-anchor="middle" x="702" y="-42.5" font-family="Times,serif" font-size="10.00">DATA: y</text>
<polyline fill="none" stroke="#000000" points="627,-35.5 777,-35.5 "/>
<text text-anchor="middle" x="662.5" y="-23.5" font-family="Times,serif" font-size="10.00">LEFT: (nil)</text>
<polyline fill="none" stroke="#000000" points="698,-16.5 698,-35.5 "/>
<text text-anchor="middle" x="737.5" y="-23.5" font-family="Times,serif" font-size="10.00">RIGHT: (nil)</text>
</g>
<!-- node0x604000000350&#45;&gt;node0x6040000002d0 -->
<g id="edge11" class="edge">
<title>node0x604000000350:f0&#45;&gt;node0x6040000002d0</title>
<path fill="none" stroke="#000000" d="M717,-148C717,-139.47 716.22,-130.53 715.03,-121.81"/>
<polygon fill="#000000" stroke="#000000" points="718.45,-121.04 713.45,-111.7 711.53,-122.12 718.45,-121.04"/>
</g>
<!-- node0x604000000310 -->
<g id="node18" class="node">
<title>node0x604000000310</title>
<path fill="#9acd32" stroke="#000000" d="M807,-16.5C807,-16.5 933,-16.5 933,-16.5 939,-16.5 945,-22.5 945,-28.5 945,-28.5 945,-99.5 945,-99.5 945,-105.5 939,-111.5 933,-111.5 933,-111.5 807,-111.5 807,-111.5 801,-111.5 795,-105.5 795,-99.5 795,-99.5 795,-28.5 795,-28.5 795,-22.5 801,-16.5 807,-16.5"/>
<text text-anchor="middle" x="870" y="-99.5" font-family="Times,serif" font-size="10.00">PARENT: 0x604000000350</text>
<polyline fill="none" stroke="#000000" points="795,-92.5 945,-92.5 "/>
<text text-anchor="middle" x="870" y="-80.5" font-family="Times,serif" font-size="10.00">PTR: 0x604000000310</text>
<polyline fill="none" stroke="#000000" points="795,-73.5 945,-73.5 "/>
<text text-anchor="middle" x="870" y="-61.5" font-family="Times,serif" font-size="10.00">TYPE: 2</text>
<polyline fill="none" stroke="#000000" points="795,-54.5 945,-54.5 "/>
<text text-anchor="middle" x="870" y="-42.5" font-family="Times,serif" font-size="10.00">DATA: 3.000</text>
<polyline fill="none" stroke="#000000" points="795,-35.5 945,-35.5 "/>
<text text-anchor="middle" x="830.5" y="-23.5" font-family="Times,serif" font-size="10.00">LEFT: (nil)</text>
<polyline fill="none" stroke="#000000" points="866,-16.5 866,-35.5 "/>
<text text-anchor="middle" x="905.5" y="-23.5" font-family="Times,serif" font-size="10.00">RIGHT: (nil)</text>
</g>
<!-- node0x604000000350&#45;&gt;node0x604000000310 -->
<g id="edge12" class="edge">
<title>node0x604000000350:f1&#45;&gt;node0x604000000310</title>
<path fill="none" stroke="#000000" d="M855,-148C855,-139.47 855.78,-130.53 856.97,-121.81"/>
<polygon fill="#000000" stroke="#000000" points="860.47,-122.12 858.55,-111.7 853.55,-121.04 860.47,-122.12"/>
</g>
<!-- node0x604000000510 -->
<g id="node20" class="node">
<title>node0x604000000510</title>
<path fill="#40e0d0" stroke="#000000" d="M788,-544.5C788,-544.5 1040,-544.5 1040,-544.5 1046,-544.5 1052,-550.5 1052,-556.5 1052,-556.5 1052,-627.5 1052,-627.5 1052,-633.5 1046,-639.5 1040,-639.5 1040,-639.5 788,-639.5 788,-639.5 782,-639.5 776,-633.5 776,-627.5 776,-627.5 776,-556.5 776,-556.5 776,-550.5 782,-544.5 788,-544.5"/>
<text text-anchor="middle" x="914" y="-627.5" font-family="Times,serif" font-size="10.00">PARENT: 0x604000000550</text>
<polyline fill="none" stroke="#000000" points="776,-620.5 1052,-620.5 "/>
<text text-anchor="middle" x="914" y="-608.5" font-family="Times,serif" font-size="10.00">PTR: 0x604000000510</text>
<polyline fill="none" stroke="#000000" points="776,-601.5 1052,-601.5 "/>
<text text-anchor="middle" x="914" y="-589.5" font-family="Times,serif" font-size="10.00">TYPE: 1</text>
<polyline fill="none" stroke="#000000" points="776,-582.5 1052,-582.5 "/>
<text text-anchor="middle" x="914" y="-570.5" font-family="Times,serif" font-size="10.00">DATA: =</text>
<polyline fill="none" stroke="#000000" points="776,-563.5 1052,-563.5 "/>
<text text-anchor="middle" x="843" y="-551.5" font-family="Times,serif" font-size="10.00">LEFT: 0x604000000490</text>
<polyline fill="none" stroke="#000000" points="910,-544.5 910,-563.5 "/>
<text text-anchor="middle" x="981" y="-551.5" font-family="Times,serif" font-size="10.00">RIGHT: 0x6040000004d0</text>
</g>
<!-- node0x604000000550&#45;&gt;node0x604000000510 -->
<g id="edge20" class="edge">
<title>node0x604000000550:f1&#45;&gt;node0x604000000510</title>
<path fill="none" stroke="#000000" d="M928,-686C945.89,-686 945.9,-668.96 940.06,-649.47"/>
<polygon fill="#000000" stroke="#000000" points="943.3,-648.12 936.78,-639.77 936.67,-650.37 943.3,-648.12"/>
</g>
<!-- node0x604000000490 -->
<g id="node21" class="node">
<title>node0x604000000490</title>
<path fill="#ffdb58" stroke="#000000" d="M780,-412.5C780,-412.5 906,-412.5 906,-412.5 912,-412.5 918,-418.5 918,-424.5 918,-424.5 918,-495.5 918,-495.5 918,-501.5 912,-507.5 906,-507.5 906,-507.5 780,-507.5 780,-507.5 774,-507.5 768,-501.5 768,-495.5 768,-495.5 768,-424.5 768,-424.5 768,-418.5 774,-412.5 780,-412.5"/>
<text text-anchor="middle" x="843" y="-495.5" font-family="Times,serif" font-size="10.00">PARENT: 0x604000000510</text>
<polyline fill="none" stroke="#000000" points="768,-488.5 918,-488.5 "/>
<text text-anchor="middle" x="843" y="-476.5" font-family="Times,serif" font-size="10.00">PTR: 0x604000000490</text>
<polyline fill="none" stroke="#000000" points="768,-469.5 918,-469.5 "/>
<text text-anchor="middle" x="843" y="-457.5" font-family="Times,serif" font-size="10.00">TYPE: 3</text>
<polyline fill="none" stroke="#000000" points="768,-450.5 918,-450.5 "/>
<text text-anchor="middle" x="843" y="-438.5" font-family="Times,serif" font-size="10.00">DATA: x</text>
<polyline fill="none" stroke="#000000" points="768,-431.5 918,-431.5 "/>
<text text-anchor="middle" x="803.5" y="-419.5" font-family="Times,serif" font-size="10.00">LEFT: (nil)</text>
<polyline fill="none" stroke="#000000" points="839,-412.5 839,-431.5 "/>
<text text-anchor="middle" x="878.5" y="-419.5" font-family="Times,serif" font-size="10.00">RIGHT: (nil)</text>
</g>
<!-- node0x604000000510&#45;&gt;node0x604000000490 -->
<g id="edge18" class="edge">
<title>node0x604000000510:f0&#45;&gt;node0x604000000490</title>
<path fill="none" stroke="#000000" d="M843,-544C843,-535.51 843,-526.53 843,-517.73"/>
<polygon fill="#000000" stroke="#000000" points="846.5,-517.53 843,-507.53 839.5,-517.53 846.5,-517.53"/>
</g>
<!-- node0x6040000004d0 -->
<g id="node22" class="node">
<title>node0x6040000004d0</title>
<path fill="#9acd32" stroke="#000000" d="M948,-412.5C948,-412.5 1074,-412.5 1074,-412.5 1080,-412.5 1086,-418.5 1086,-424.5 1086,-424.5 1086,-495.5 1086,-495.5 1086,-501.5 1080,-507.5 1074,-507.5 1074,-507.5 948,-507.5 948,-507.5 942,-507.5 936,-501.5 936,-495.5 936,-495.5 936,-424.5 936,-424.5 936,-418.5 942,-412.5 948,-412.5"/>
<text text-anchor="middle" x="1011" y="-495.5" font-family="Times,serif" font-size="10.00">PARENT: 0x604000000510</text>
<polyline fill="none" stroke="#000000" points="936,-488.5 1086,-488.5 "/>
<text text-anchor="middle" x="1011" y="-476.5" font-family="Times,serif" font-size="10.00">PTR: 0x6040000004d0</text>
<polyline fill="none" stroke="#000000" points="936,-469.5 1086,-469.5 "/>
<text text-anchor="middle" x="1011" y="-457.5" font-family="Times,serif" font-size="10.00">TYPE: 2</text>
<polyline fill="none" stroke="#000000" points="936,-450.5 1086,-450.5 "/>
<text text-anchor="middle" x="1011" y="-438.5" font-family="Times,serif" font-size="10.00">DATA: 4.000</text>
<polyline fill="none" stroke="#000000" points="936,-431.5 1086,-431.5 "/>
<text text-anchor="middle" x="971.5" y="-419.5" font-family="Times,serif" font-size="10.00">LEFT: (nil)</text>
<polyline fill="none" stroke="#000000" points="1007,-412.5 1007,-431.5 "/>
<text text-anchor="middle" x="1046.5" y="-419.5" font-family="Times,serif" font-size="10.00">RIGHT: (nil)</text>
</g>
<!-- node0x604000000510&#45;&gt;node0x6040000004d0 -->
<g id="edge19" class="edge">
<title>node0x604000000510:f1&#45;&gt;node0x6040000004d0</title>
<path fill="none" stroke="#000000" d="M981,-544C981,-535.21 982.51,-526.18 984.85,-517.47"/>
<polygon fill="#000000" stroke="#000000" points="988.23,-518.39 987.81,-507.81 981.53,-516.34 988.23,-518.39"/>
</g>
<!-- All -->
<g id="node23" class="node">
<title>All</title>
<path fill="#ffa07a" stroke="#000000" d="M518,-940.5C518,-940.5 688,-940.5 688,-940.5 694,-940.5 700,-946.5 700,-952.5 700,-952.5 700,-964.5 700,-964.5 700,-970.5 694,-976.5 688,-976.5 688,-976.5 518,-976.5 518,-976.5 512,-976.5 506,-970.5 506,-964.5 506,-964.5 506,-952.5 506,-952.5 506,-946.5 512,-940.5 518,-940.5"/>
<text text-anchor="middle" x="538" y="-956" font-family="Times,serif" font-size="10.00">HEADER</text>
<polyline fill="none" stroke="#000000" points="570,-940.5 570,-976.5 "/>
<text text-anchor="middle" x="635" y="-956" font-family="Times,serif" font-size="10.00">Root: 0x604000000590</text>
</g>
<!-- All&#45;&gt;node0x604000000590 -->
<g id="edge22" class="edge">
<title>All:f0&#45;&gt;node0x604000000590</title>
<path fill="none" stroke="#000000" d="M635,-940C635,-931.51 635,-922.53 635,-913.73"/>
<polygon fill="#000000" stroke="#000000" points="638.5,-913.53 635,-903.53 631.5,-913.53 638.5,-913.53"/>
</g>
</g>
</svg>